<?xml version="1.0" encoding="UTF-8"?> <svg xmlns="http://www.w3.org/2000/svg" xmlns:xlink="http://www.w3.org/1999/xlink" width="49.4" height="38.679" viewBox="0 0 49.4 38.679"><defs><linearGradient id="linear-gradient" x1="0.5" x2="0.5" y2="1" gradientUnits="objectBoundingBox"><stop offset="0" stop-color="#1a936f"></stop><stop offset="1" stop-color="#09efa8"></stop></linearGradient><clipPath id="clip-path"><rect id="Rectangle_67" data-name="Rectangle 67" width="49.4" height="38.679" fill="url(#linear-gradient)"></rect></clipPath></defs><g id="Group_213" data-name="Group 213" clip-path="url(#clip-path)"><path id="Path_174" data-name="Path 174" d="M21.038,5.93c-4.261,2.291-9.188,7.952-10.385,12.8a6.474,6.474,0,0,1,2.663-.4c5.059,0,9.054,3.908,9.054,9.7A10.694,10.694,0,0,1,11.85,38.679C5.592,38.679,0,33.693,0,24.933,0,14.825,5.459,5.8,13.714,0Zm27.163,0c-4.26,2.291-9.32,7.952-10.386,12.8a6.482,6.482,0,0,1,2.663-.4c4.927,0,8.922,3.908,8.922,9.7A10.606,10.606,0,0,1,38.881,38.679c-6.258,0-11.718-4.987-11.718-13.746C27.162,14.825,32.489,5.8,40.745,0Z" transform="translate(0 0)" fill="url(#linear-gradient)"></path></g></svg> 