<?xml version="1.0" encoding="UTF-8"?> <svg xmlns="http://www.w3.org/2000/svg" id="Group_2563" data-name="Group 2563" width="50" height="38.434" viewBox="0 0 50 38.434"><path id="Path_153" data-name="Path 153" d="M45.826,70.573H40.738V63.391a4.179,4.179,0,0,0-4.174-4.174H4.174A4.179,4.179,0,0,0,0,63.391V82.12a4.179,4.179,0,0,0,4.174,4.174H9.262v7.182a4.179,4.179,0,0,0,4.174,4.174H45.826A4.179,4.179,0,0,0,50,93.477V74.747A4.179,4.179,0,0,0,45.826,70.573Zm-32.389,0c-.081,0-.161,0-.24.007H2.385V67.442H38.353v3.131ZM4.174,61.6H36.564a1.791,1.791,0,0,1,1.789,1.789v1.665H2.385V63.391A1.791,1.791,0,0,1,4.174,61.6Zm0,22.307A1.791,1.791,0,0,1,2.385,82.12V72.966H9.663a4.147,4.147,0,0,0-.4,1.782v9.162Zm43.441,9.567a1.791,1.791,0,0,1-1.789,1.789H13.437a1.791,1.791,0,0,1-1.789-1.789V74.747a1.79,1.79,0,0,1,1.643-1.782H39.545a1.189,1.189,0,0,0,.13-.007h6.151a1.791,1.791,0,0,1,1.789,1.789v18.73Z" transform="translate(0 -59.217)" fill="#00efa8"></path><path id="Path_154" data-name="Path 154" d="M220.695,255.266a5.72,5.72,0,0,0-3.588,1.262,5.75,5.75,0,1,0,0,8.974,5.748,5.748,0,1,0,3.588-10.236Zm-10.549,5.749a3.364,3.364,0,0,1,5.446-2.642,5.729,5.729,0,0,0,0,5.285,3.364,3.364,0,0,1-5.446-2.642Zm10.549,3.364a3.364,3.364,0,1,1,3.364-3.364A3.368,3.368,0,0,1,220.695,264.379Z" transform="translate(-187.471 -236.12)" fill="#00efa8"></path></svg> 