<?xml version="1.0" encoding="UTF-8"?> <svg xmlns="http://www.w3.org/2000/svg" id="Group_786" data-name="Group 786" width="41.717" height="55.634" viewBox="0 0 41.717 55.634"><g id="Icon:_HTML" data-name="Icon: HTML"><path id="Path_108" data-name="Path 108" d="M105.754,14.094a1.3,1.3,0,0,0-.379-.883L92.546.382h0A1.3,1.3,0,0,0,91.625,0H66.782A2.745,2.745,0,0,0,64.04,2.742V52.892a2.745,2.745,0,0,0,2.742,2.742h36.232a2.745,2.745,0,0,0,2.742-2.742V14.132C105.757,14.119,105.755,14.106,105.754,14.094ZM92.928,4.448l8.381,8.381H93.477a.55.55,0,0,1-.55-.55V4.448Zm10.087,48.581H66.782a.137.137,0,0,1-.137-.137V2.742a.137.137,0,0,1,.137-.137h23.54v9.674a3.159,3.159,0,0,0,3.155,3.155h9.674V52.892A.138.138,0,0,1,103.014,53.029Z" transform="translate(-64.04 0)" fill="#00efa8"></path><g id="Group_15" data-name="Group 15" transform="translate(5.865 20.103)"><g id="Group_12" data-name="Group 12" transform="translate(20.875 3.888)"><path id="Path_109" data-name="Path 109" d="M311.534,236.21a1.4,1.4,0,0,1-.99-2.391l5.32-5.32-5.32-5.32a1.4,1.4,0,1,1,1.981-1.981l6.31,6.31a1.4,1.4,0,0,1,0,1.981l-6.31,6.31A1.4,1.4,0,0,1,311.534,236.21Z" transform="translate(-310.134 -220.789)" fill="#00efa8"></path></g><g id="Group_13" data-name="Group 13" transform="translate(0 3.888)"><path id="Path_110" data-name="Path 110" d="M125.727,220.789a1.4,1.4,0,0,1,.99,2.391l-5.32,5.32,5.32,5.32a1.4,1.4,0,0,1-1.981,1.981l-6.31-6.31a1.4,1.4,0,0,1,0-1.981l6.31-6.31A1.4,1.4,0,0,1,125.727,220.789Z" transform="translate(-118.017 -220.789)" fill="#00efa8"></path></g><g id="Group_14" data-name="Group 14" transform="translate(9.723)"><path id="Path_111" data-name="Path 111" d="M208.856,208.208a1.359,1.359,0,0,1-1.316-1.7l7.606-20.479a1.358,1.358,0,0,1,2.629.684l-7.606,20.479A1.359,1.359,0,0,1,208.856,208.208Z" transform="translate(-207.497 -185.012)" fill="#00efa8"></path></g></g></g></svg> 