<?xml version="1.0" encoding="UTF-8"?> <svg xmlns="http://www.w3.org/2000/svg" id="Group_928" data-name="Group 928" width="37.143" height="49.534" viewBox="0 0 37.143 49.534"><g id="Icon:_File_3" data-name="Icon: File 3" transform="translate(0 0)"><path id="Path_134" data-name="Path 134" d="M101.18,10.026a1.158,1.158,0,0,0-.337-.808L91.965.34h0A1.155,1.155,0,0,0,91.145,0H66.482A2.444,2.444,0,0,0,64.04,2.442V47.093a2.444,2.444,0,0,0,2.442,2.442h32.26a2.444,2.444,0,0,0,2.442-2.442V10.038S101.181,10.03,101.18,10.026ZM92.427,8.878a.122.122,0,0,1-.122-.122V3.96l4.918,4.918Zm6.314,38.337H66.482a.122.122,0,0,1-.122-.122V2.442a.122.122,0,0,1,.122-.122h23.5V8.756A2.445,2.445,0,0,0,92.427,11.2h6.436v35.9A.122.122,0,0,1,98.741,47.215Z" transform="translate(-64.04)" fill="#00efa8"></path><path id="Path_135" data-name="Path 135" d="M159.611,164.014H139.084a1.16,1.16,0,1,0,0,2.32h20.527a1.16,1.16,0,1,0,0-2.32Z" transform="translate(-130.776 -148.146)" fill="#00efa8"></path><path id="Path_136" data-name="Path 136" d="M159.611,236.353H139.084a1.16,1.16,0,0,0,0,2.32h20.527a1.16,1.16,0,0,0,0-2.32Z" transform="translate(-130.776 -213.487)" fill="#00efa8"></path><path id="Path_137" data-name="Path 137" d="M159.611,308.691H139.084a1.16,1.16,0,0,0,0,2.32h20.527a1.16,1.16,0,0,0,0-2.32Z" transform="translate(-130.776 -278.826)" fill="#00efa8"></path><path id="Path_138" data-name="Path 138" d="M149.347,381.031H139.084a1.16,1.16,0,0,0,0,2.32h10.264a1.16,1.16,0,1,0,0-2.32Z" transform="translate(-130.776 -344.167)" fill="#00efa8"></path></g></svg> 