<?xml version="1.0" encoding="UTF-8"?> <svg xmlns="http://www.w3.org/2000/svg" id="Group_1028" data-name="Group 1028" width="50" height="55.495" viewBox="0 0 50 55.495"><g id="Video_Camera" data-name="Video Camera"><path id="Path_260" data-name="Path 260" d="M74.744,20.381a1.239,1.239,0,0,0-1.222-.027l-8.01,4.311V20.97a1.239,1.239,0,0,0-1.239-1.239H62.258A11.1,11.1,0,1,0,44.48,8.5,8.37,8.37,0,1,0,32.092,19.732H30.961a1.239,1.239,0,0,0-1.239,1.239v5.623H26.586a1.239,1.239,0,0,0-1.239,1.239V32.7a1.239,1.239,0,0,0,1.239,1.239h3.136v5.623A1.239,1.239,0,0,0,30.96,40.8H45.574L38.86,53.683a1.239,1.239,0,1,0,2.2,1.145l6.56-12.584,6.56,12.584a1.239,1.239,0,0,0,2.2-1.145L49.659,40.8H64.272a1.239,1.239,0,0,0,1.239-1.239V35.87l8.01,4.311a1.239,1.239,0,0,0,1.826-1.091V21.444A1.238,1.238,0,0,0,74.744,20.381ZM55.275,2.477A8.627,8.627,0,1,1,46.648,11.1,8.637,8.637,0,0,1,55.275,2.477ZM48.292,19.732H43.97a8.4,8.4,0,0,0,1.845-2.817A11.188,11.188,0,0,0,48.292,19.732Zm-16.157-5.9a5.9,5.9,0,1,1,5.9,5.9A5.9,5.9,0,0,1,32.135,13.835Zm-4.31,17.629V29.071h1.9v2.394Zm35.209,6.862H32.2V22.209H63.034V38.326Zm9.836-1.309-7.358-3.961V27.478l7.358-3.961Z" transform="translate(-25.347)" fill="#00efa8"></path><path id="Path_261" data-name="Path 261" d="M111.416,92.931a3.763,3.763,0,1,0,3.763,3.763A3.767,3.767,0,0,0,111.416,92.931Zm0,5.3a1.533,1.533,0,1,1,1.533-1.533A1.535,1.535,0,0,1,111.416,98.227Z" transform="translate(-98.732 -82.858)" fill="#00efa8"></path><path id="Path_262" data-name="Path 262" d="M257.013,63.4a5.4,5.4,0,1,0-5.4-5.4A5.41,5.41,0,0,0,257.013,63.4Zm0-8.33A2.926,2.926,0,1,1,254.086,58,2.93,2.93,0,0,1,257.013,55.072Z" transform="translate(-227.085 -46.894)" fill="#00efa8"></path><path id="Path_263" data-name="Path 263" d="M144.12,238.137H130.652a1.177,1.177,0,0,0-1.177,1.177v6.559a1.177,1.177,0,0,0,1.177,1.177H144.12a1.177,1.177,0,0,0,1.177-1.177v-6.559A1.177,1.177,0,0,0,144.12,238.137Zm-1.177,6.56H131.829v-4.206h11.115Z" transform="translate(-118.189 -212.326)" fill="#00efa8"></path><ellipse id="Ellipse_24" data-name="Ellipse 24" cx="1.239" cy="1.239" rx="1.239" ry="1.239" transform="translate(31.19 26.988)" fill="#00efa8"></ellipse><ellipse id="Ellipse_25" data-name="Ellipse 25" cx="1.239" cy="1.239" rx="1.239" ry="1.239" transform="translate(31.19 31.069)" fill="#00efa8"></ellipse></g></svg> 