<?xml version="1.0" encoding="UTF-8"?> <svg xmlns="http://www.w3.org/2000/svg" width="55" height="48.998" viewBox="0 0 55 48.998"><g id="Group_2617" data-name="Group 2617" transform="translate(-999 -2610)"><g id="Icon:_Monitor" data-name="Icon: Monitor" transform="translate(999 2610)"><path id="Path_147" data-name="Path 147" d="M51.68,27.937H3.32A3.324,3.324,0,0,0,0,31.257V64.646a3.324,3.324,0,0,0,3.32,3.32H19.891v2.416A4.021,4.021,0,0,1,15.875,74.4H12.223a1.268,1.268,0,0,0,0,2.536H42.777a1.268,1.268,0,0,0,0-2.536H39.125a4.021,4.021,0,0,1-4.017-4.017V67.967H51.679A3.324,3.324,0,0,0,55,64.646V31.257A3.324,3.324,0,0,0,51.68,27.937ZM3.32,30.473H51.68a.785.785,0,0,1,.785.785V55.447H2.536V31.257A.785.785,0,0,1,3.32,30.473Zm29.253,39.91A6.518,6.518,0,0,0,33.954,74.4H21.046a6.518,6.518,0,0,0,1.381-4.017V67.967H32.573v2.416ZM51.68,65.431H3.32a.785.785,0,0,1-.785-.785V57.983H52.464v6.664A.785.785,0,0,1,51.68,65.431Z" transform="translate(0 -27.937)" fill="#00efa8"></path><circle id="Ellipse_21" data-name="Ellipse 21" cx="1.368" cy="1.368" r="1.368" transform="translate(26.132 32.402)" fill="#00efa8"></circle><path id="Path_148" data-name="Path 148" d="M173.942,117.294a1.264,1.264,0,0,0,.9-.371l8.96-8.961a1.268,1.268,0,0,0-1.793-1.793l-8.961,8.961a1.268,1.268,0,0,0,.9,2.165Z" transform="translate(-154.125 -97.433)" fill="#00efa8"></path><path id="Path_149" data-name="Path 149" d="M272.672,159.87a1.268,1.268,0,0,0,1.793,0l3.57-3.569a1.268,1.268,0,0,0-1.793-1.793l-3.57,3.57A1.268,1.268,0,0,0,272.672,159.87Z" transform="translate(-243.049 -140.58)" fill="#00efa8"></path></g></g></svg> 