<svg height="40.661" viewBox="0 0 50 40.661" width="50" xmlns="http://www.w3.org/2000/svg"><g fill="#00efa8"><circle cx="10.762" cy="33.867" r="1.69"/><path d="m48.986 72.569a3.941 3.941 0 0 0 -.7-2.239 3.962 3.962 0 0 0 -2.254-7.221h-10.415l.66-1.48a16.758 16.758 0 0 0 1.462-6.829s.006-2.891.006-2.908a4.074 4.074 0 0 0 -7.851-1.525c-.028.068-.975 2.861-.975 2.861a14.433 14.433 0 0 1 -4.387 6.372l-4.832 4.041h-2.795v-1.276a2.433 2.433 0 0 0 -2.43-2.43h-12.045a2.433 2.433 0 0 0 -2.43 2.43v23.683a2.433 2.433 0 0 0 2.43 2.43h12.045a2.433 2.433 0 0 0 2.43-2.43v-1.9h1.526l1.515.732a26.717 26.717 0 0 0 11.554 2.645h11.5a3.961 3.961 0 0 0 3.268-6.2 3.956 3.956 0 0 0 1.014-5.5 3.961 3.961 0 0 0 1.704-3.256zm-34.511 13.479h-12.045v-23.683h12.045v23.682zm28.525-.954h-11.5a24.271 24.271 0 0 1 -10.5-2.4l-1.765-.853a1.215 1.215 0 0 0 -.529-.121h-1.806v-15.649h3.24a1.215 1.215 0 0 0 .78-.283l5.172-4.326a16.861 16.861 0 0 0 5.124-7.445s.967-2.815.972-2.834a1.643 1.643 0 0 1 3.127.707c0 .016-.006 2.9-.006 2.9a14.34 14.34 0 0 1 -1.251 5.847l-1.415 3.174a1.209 1.209 0 0 0 -.052.848 1.249 1.249 0 0 0 1.167.878h12.28a1.533 1.533 0 0 1 0 3.066h-1.73a1.215 1.215 0 0 0 0 2.43h.715a1.533 1.533 0 1 1 0 3.066h-1.729a1.215 1.215 0 1 0 0 2.43h.715a1.533 1.533 0 1 1 0 3.066h-1.729a1.215 1.215 0 1 0 0 2.43h.72a1.533 1.533 0 1 1 0 3.066z" transform="translate(0 -47.817)"/></g></svg>