<?xml version="1.0" encoding="UTF-8"?> <svg xmlns="http://www.w3.org/2000/svg" width="50" height="30.382" viewBox="0 0 50 30.382"><g id="Icon:_Envelope" data-name="Icon: Envelope" transform="translate(0)"><path id="Path_86" data-name="Path 86" d="M49.965,103a2.564,2.564,0,0,0-2.561-2.558h0l-44.843.062A2.561,2.561,0,0,0,0,103.071l.035,25.2A2.561,2.561,0,0,0,2.6,130.827h0l44.843-.062A2.564,2.564,0,0,0,50,128.2ZM33.286,119.2l11.618,9.01-39.841.055L16.752,119.2a1.281,1.281,0,0,0-1.57-2.024L2.594,126.936l-.031-22.7,21.713,15.006a1.28,1.28,0,0,0,1.459,0l21.671-15.065.033,22.76-12.584-9.759a1.281,1.281,0,1,0-1.569,2.024ZM5.375,103.064l39.216-.054L25,116.627Z" transform="translate(0 -100.445)" fill="#00efa8"></path></g></svg> 