<svg height="50" viewBox="0 0 37.492 50" width="37.492" xmlns="http://www.w3.org/2000/svg"><g fill="#00efa8"><path d="m101.53 10.12a1.168 1.168 0 0 0 -.34-.816l-8.962-8.961a1.166 1.166 0 0 0 -.828-.343h-24.9a2.467 2.467 0 0 0 -2.46 2.465v45.07a2.467 2.467 0 0 0 2.46 2.465h32.568a2.467 2.467 0 0 0 2.465-2.465v-37.4s-.003-.011-.003-.015zm-8.836-1.159a.124.124 0 0 1 -.123-.123v-4.838l4.964 4.964zm6.374 38.7h-32.568a.123.123 0 0 1 -.123-.123v-45.073a.123.123 0 0 1 .123-.123h23.729v6.5a2.468 2.468 0 0 0 2.465 2.458h6.5v36.235a.123.123 0 0 1 -.126.124z" transform="translate(-64.04)"/><path d="m159.815 164.014h-20.72a1.171 1.171 0 1 0 0 2.341h20.72a1.171 1.171 0 1 0 0-2.341z" transform="translate(-130.709 -147.997)"/><path d="m159.815 236.353h-20.72a1.171 1.171 0 1 0 0 2.341h20.72a1.171 1.171 0 0 0 0-2.341z" transform="translate(-130.709 -213.272)"/><path d="m159.815 308.691h-20.72a1.171 1.171 0 0 0 0 2.342h20.72a1.171 1.171 0 0 0 0-2.342z" transform="translate(-130.709 -278.545)"/><path d="m149.455 381.031h-10.36a1.171 1.171 0 1 0 0 2.341h10.36a1.171 1.171 0 1 0 0-2.341z" transform="translate(-130.709 -343.821)"/></g></svg>