<?xml version="1.0" encoding="UTF-8"?> <svg xmlns="http://www.w3.org/2000/svg" xmlns:xlink="http://www.w3.org/1999/xlink" id="Group_2" data-name="Group 2" viewBox="0 0 75 75"><defs><style>.cls-1{fill:none;}.cls-2{clip-path:url(#clip-path);}.cls-3{fill:#fff;}.cls-4{fill:#1a936f;}</style><clipPath id="clip-path"><rect class="cls-1" width="75" height="75"></rect></clipPath></defs><g class="cls-2"><g id="Group_1" data-name="Group 1"><circle class="cls-3" cx="37.5" cy="37.5" r="37.5"></circle><path id="Path_1" data-name="Path 1" class="cls-3" d="M37.5,75A37.5,37.5,0,1,1,75,37.5,37.5,37.5,0,0,1,37.5,75m0-73.33A35.83,35.83,0,1,0,73.33,37.5,35.83,35.83,0,0,0,37.5,1.67"></path><path id="Path_2" data-name="Path 2" class="cls-3" d="M20.23,44.92V21.69a1.07,1.07,0,0,1,.93-1.19.62.62,0,0,1,.27,0h.91a1.08,1.08,0,0,1,1.2,1,.81.81,0,0,1,0,.22V45.83c0,4.73-2.8,6.8-7.67,6.8H15.6a1.08,1.08,0,0,1-1.2-.93,1.22,1.22,0,0,1,0-.27v-.64a1.09,1.09,0,0,1,1-1.19h.41c3.08,0,4.45-1.29,4.45-4.69"></path><path id="Path_3" data-name="Path 3" class="cls-3" d="M43,31.7h-.87a1.09,1.09,0,0,1-1.19-1,.89.89,0,0,1,0-.23v-3c0-3.07-1.24-4.4-4.13-4.4s-4.13,1.33-4.13,4.4v2.25c0,2.16.73,2.8,2.89,4l4.59,2.52c2.48,1.38,4.13,3.08,4.13,5.78v4.27c0,4.68-2.53,6.7-7.39,6.7h-.1c-4.86,0-7.39-2-7.39-6.7V42.16A1.07,1.07,0,0,1,30.29,41h1.14a1.08,1.08,0,0,1,1.19,1,.81.81,0,0,1,0,.22v3.4c0,3,1.24,4.5,4.18,4.5S41,48.59,41,45.56V43c0-2.16-.83-3-3-4.23l-4.5-2.47c-2.8-1.57-4.09-2.9-4.09-5.7V26.74c0-4.5,2.94-6.61,7.35-6.61h.09c4.41,0,7.34,2.11,7.34,6.61V30.5a1.07,1.07,0,0,1-.92,1.2,1.22,1.22,0,0,1-.27,0"></path><path id="Path_4" data-name="Path 4" class="cls-3" d="M62.55,50.79v.64a1.06,1.06,0,0,1-.92,1.2H51.31a1.08,1.08,0,0,1-1.2-.93,1.22,1.22,0,0,1,0-.27V21.69A1.07,1.07,0,0,1,51,20.5a1.22,1.22,0,0,1,.27,0h.87a1.09,1.09,0,0,1,1.23.94,2.18,2.18,0,0,1,0,.25V49.6h7.93a1.08,1.08,0,0,1,1.2,1,.89.89,0,0,1,0,.23"></path></g></g><g class="cls-2"><g id="Group_1-2" data-name="Group 1"><circle class="cls-3" cx="37.5" cy="37.5" r="37.5"></circle><path id="Path_1-2" data-name="Path 1" class="cls-3" d="M37.5,75A37.5,37.5,0,1,1,75,37.5,37.5,37.5,0,0,1,37.5,75m0-73.33A35.83,35.83,0,1,0,73.33,37.5,35.83,35.83,0,0,0,37.5,1.67"></path><path id="Path_2-2" data-name="Path 2" class="cls-4" d="M20.23,44.92V21.69a1.07,1.07,0,0,1,.93-1.19.62.62,0,0,1,.27,0h.91a1.08,1.08,0,0,1,1.2,1,.81.81,0,0,1,0,.22V45.83c0,4.73-2.8,6.8-7.67,6.8H15.6a1.08,1.08,0,0,1-1.2-.93,1.22,1.22,0,0,1,0-.27v-.64a1.09,1.09,0,0,1,1-1.19h.41c3.08,0,4.45-1.29,4.45-4.69"></path><path id="Path_3-2" data-name="Path 3" class="cls-4" d="M43,31.7h-.87a1.09,1.09,0,0,1-1.19-1,.89.89,0,0,1,0-.23v-3c0-3.07-1.24-4.4-4.13-4.4s-4.13,1.33-4.13,4.4v2.25c0,2.16.73,2.8,2.89,4l4.59,2.52c2.48,1.38,4.13,3.08,4.13,5.78v4.27c0,4.68-2.53,6.7-7.39,6.7h-.1c-4.86,0-7.39-2-7.39-6.7V42.16A1.07,1.07,0,0,1,30.29,41h1.14a1.08,1.08,0,0,1,1.19,1,.81.81,0,0,1,0,.22v3.4c0,3,1.24,4.5,4.18,4.5S41,48.59,41,45.56V43c0-2.16-.83-3-3-4.23l-4.5-2.47c-2.8-1.57-4.09-2.9-4.09-5.7V26.74c0-4.5,2.94-6.61,7.35-6.61h.09c4.41,0,7.34,2.11,7.34,6.61V30.5a1.07,1.07,0,0,1-.92,1.2,1.22,1.22,0,0,1-.27,0"></path><path id="Path_4-2" data-name="Path 4" class="cls-4" d="M62.55,50.79v.64a1.06,1.06,0,0,1-.92,1.2H51.31a1.08,1.08,0,0,1-1.2-.93,1.22,1.22,0,0,1,0-.27V21.69A1.07,1.07,0,0,1,51,20.5a1.22,1.22,0,0,1,.27,0h.87a1.09,1.09,0,0,1,1.23.94,2.18,2.18,0,0,1,0,.25V49.6h7.93a1.08,1.08,0,0,1,1.2,1,.89.89,0,0,1,0,.23"></path></g></g></svg> 