<?xml version="1.0" encoding="UTF-8"?> <svg xmlns="http://www.w3.org/2000/svg" id="Group_576" data-name="Group 576" width="55.634" height="55.625" viewBox="0 0 55.634 55.625"><path id="Path_186" data-name="Path 186" d="M49.723,5.945A20.182,20.182,0,0,0,20.206,33.438l-2.4,2.4-2.449-2.449a1.431,1.431,0,0,0-2.024,0L1.853,44.868A6.326,6.326,0,1,0,10.8,53.815L22.276,42.339a1.431,1.431,0,0,0,0-2.024l-2.449-2.449,2.4-2.4A20.181,20.181,0,0,0,49.723,5.945ZM8.776,51.79a3.464,3.464,0,0,1-4.9-4.9l6.4-6.4,4.9,4.9ZM17.2,43.362l-4.9-4.9,2.036-2.036,4.9,4.9ZM47.7,32.461a17.318,17.318,0,1,1,5.073-12.246A17.338,17.338,0,0,1,47.7,32.461Z" transform="translate(0 -0.043)" fill="#00efa8"></path><path id="Path_187" data-name="Path 187" d="M221.546,61.192a13.971,13.971,0,1,0,0,19.768h0A13.994,13.994,0,0,0,221.546,61.192Zm-2.024,17.744a11.11,11.11,0,1,1,0-15.72A11.128,11.128,0,0,1,219.522,78.936Z" transform="translate(-176.209 -50.904)" fill="#00efa8"></path><path id="Path_188" data-name="Path 188" d="M273.783,118.556a1.431,1.431,0,1,0,2.024,2.024,4.68,4.68,0,0,1,6.611,0,1.431,1.431,0,0,0,2.024-2.024A7.546,7.546,0,0,0,273.783,118.556Z" transform="translate(-243.66 -103.714)" fill="#00efa8"></path></svg> 