<?xml version="1.0" encoding="UTF-8"?> <svg xmlns="http://www.w3.org/2000/svg" width="55.634" height="49.129" viewBox="0 0 55.634 49.129"><path id="Path_185" data-name="Path 185" d="M55.634,49.366a7.806,7.806,0,0,0-6.79-7.729V32.686a2.752,2.752,0,0,0-4.1-2.4,64.024,64.024,0,0,1-26.709,8.019c-.072.005-8.625.043-8.625.043a4.2,4.2,0,0,0-4.169,3.7H3.485A3.489,3.489,0,0,0,0,45.54V53.2a3.489,3.489,0,0,0,3.485,3.485H5.24a4.209,4.209,0,0,0,2.476,3.346l6.246,17.239a2.734,2.734,0,0,0,2.562,1.794h6.268A2.726,2.726,0,0,0,25.355,75.4L19.989,60.6a63.936,63.936,0,0,1,24.754,7.843,2.735,2.735,0,0,0,2.744-.027,2.722,2.722,0,0,0,1.357-2.371V57.1A7.806,7.806,0,0,0,55.634,49.366ZM7.9,42.55a1.513,1.513,0,0,1,1.511-1.511h7.316V57.7s-7.38,0-7.412,0a1.407,1.407,0,0,1-.52-.128,1.512,1.512,0,0,1-.9-1.379V42.55ZM2.688,53.2V45.54a.8.8,0,0,1,.8-.8H5.21v9.252H3.485A.8.8,0,0,1,2.688,53.2Zm20.136,23.16a.031.031,0,0,1-.031.016H16.525a.038.038,0,0,1-.036-.023L10.7,60.387h6.347l5.777,15.936A.03.03,0,0,1,22.824,76.357Zm23.332-10.31a.049.049,0,0,1-.029.052.062.062,0,0,1-.072,0,66.627,66.627,0,0,0-26.641-8.254V40.89a66.65,66.65,0,0,0,26.641-8.255.063.063,0,0,1,.072,0,.049.049,0,0,1,.029.052Zm2.688-11.672V44.358a5.109,5.109,0,0,1,0,10.017Z" transform="translate(0 -29.933)" fill="#00efa8"></path></svg> 