<?xml version="1.0" encoding="UTF-8"?> <svg xmlns="http://www.w3.org/2000/svg" width="58.001" height="45.413" viewBox="0 0 58.001 45.413"><path d="M16.1,0C6.409,6.81,0,17.406,0,29.274,0,39.559,6.566,45.413,13.913,45.413a12.555,12.555,0,0,0,12.352-12.5c0-6.8-4.691-11.389-10.63-11.389a7.607,7.607,0,0,0-3.127.47C13.913,16.3,19.7,9.652,24.7,6.962ZM47.839,0C38.145,6.81,31.891,17.406,31.892,29.274c0,10.284,6.411,16.139,13.758,16.139A12.452,12.452,0,0,0,58,33V32.91c0-6.8-4.691-11.389-10.475-11.389a7.607,7.607,0,0,0-3.127.47C45.65,16.3,51.591,9.652,56.593,6.962Z" fill="#00EFA8"></path></svg> 