<?xml version="1.0" encoding="UTF-8"?> <svg xmlns="http://www.w3.org/2000/svg" xmlns:xlink="http://www.w3.org/1999/xlink" width="17.254" height="11.939" viewBox="0 0 17.254 11.939"><defs><linearGradient id="linear-gradient" x1="0.5" x2="0.5" y2="1" gradientUnits="objectBoundingBox"><stop offset="0" stop-color="#1a936f"></stop><stop offset="1" stop-color="#09efa8"></stop></linearGradient></defs><g id="Group_460" data-name="Group 460" transform="translate(73.799 -130.471)"><path id="Path_148" data-name="Path 148" d="M-57.32,180.683h-15.7a1.413,1.413,0,0,1-.78-1.356c.014-2.629.006-5.257.006-7.886v-.207l.905.673q3.795,2.829,7.588,5.66a.173.173,0,0,0,.257,0c.224-.181.461-.347.693-.52l7.8-5.815v8.529A1.6,1.6,0,0,1-57.32,180.683Z" transform="translate(0 -38.274)" fill="url(#linear-gradient)"></path><path id="Path_149" data-name="Path 149" d="M-52.277,138.641l-3.2-2.721q-2.157-1.832-4.312-3.664-.272-.232-.529-.487c-.126-.126-.1-.213.068-.263a1.131,1.131,0,0,1,.164-.031.725.725,0,0,1,.1,0q7.683,0,15.366,0a1,1,0,0,1,.3.039.28.28,0,0,1,.162.135c.014.032-.052.127-.1.168-.682.6-1.36,1.209-2.052,1.8q-2.91,2.469-5.829,4.924C-52.183,138.566-52.224,138.6-52.277,138.641Z" transform="translate(-12.895 -1)" fill="url(#linear-gradient)"></path></g></svg> 