<?xml version="1.0" encoding="UTF-8"?> <svg xmlns="http://www.w3.org/2000/svg" xmlns:xlink="http://www.w3.org/1999/xlink" width="14.207" height="15.389" viewBox="0 0 14.207 15.389"><defs><linearGradient id="linear-gradient" x1="0.5" x2="0.5" y2="1" gradientUnits="objectBoundingBox"><stop offset="0" stop-color="#1a936f"></stop><stop offset="1" stop-color="#09efa8"></stop></linearGradient></defs><path id="Path_176" data-name="Path 176" d="M-64.525-43.8c-.27-.041-.54-.076-.809-.123a11.006,11.006,0,0,1-4.234-1.668,13.1,13.1,0,0,1-5.758-8.454,12.283,12.283,0,0,1-.252-2.337A2.146,2.146,0,0,1-74.941-58a6.417,6.417,0,0,1,1.221-1,1.224,1.224,0,0,1,1.216-.053,3.712,3.712,0,0,1,.772.453,1.214,1.214,0,0,1,.31.488,10.4,10.4,0,0,1,.532,1.984c.053.273.083.551.138.824a.817.817,0,0,1-.159.7,7.591,7.591,0,0,1-.571.631c-.216.215-.446.416-.678.615a.161.161,0,0,0-.055.209,9.155,9.155,0,0,0,.986,1.873,12.091,12.091,0,0,0,3.638,3.522c.415.267.417.255.8-.066q.437-.371.89-.723a1.059,1.059,0,0,1,1.062-.19c.743.264,1.486.529,2.232.784a1.785,1.785,0,0,1,1.16,1.3,1.344,1.344,0,0,1-.3,1.42c-.179.186-.352.379-.54.556a3.825,3.825,0,0,1-1.393.867Z" transform="translate(75.58 59.186)" fill="url(#linear-gradient)"></path></svg> 