<?xml version="1.0" encoding="UTF-8"?> <svg xmlns="http://www.w3.org/2000/svg" xmlns:xlink="http://www.w3.org/1999/xlink" id="Group_114" data-name="Group 114" width="300" height="22.253" viewBox="0 0 300 22.253"><defs><clipPath id="clip-path"><rect id="Rectangle_3" data-name="Rectangle 3" width="300" height="22.253" transform="translate(0 0)" fill="none"></rect></clipPath></defs><g id="Group_3" data-name="Group 3" transform="translate(0 0)" clip-path="url(#clip-path)"><path id="Path_5" data-name="Path 5" d="M3.294,17.168V1.877A1.116,1.116,0,0,1,4.538.634H5.656A1.116,1.116,0,0,1,6.9,1.877V17.789c0,3.357-2.238,4.6-5.532,4.6H1.243A1.115,1.115,0,0,1,0,21.147V20.4a1.116,1.116,0,0,1,1.243-1.243H1.3c1.181,0,1.989-.435,1.989-1.989" transform="translate(0 -0.385)" fill="#fff"></path><path id="Path_6" data-name="Path 6" d="M33.713,8.02H32.657a1.116,1.116,0,0,1-1.243-1.244v-1.8A1.65,1.65,0,0,0,29.58,3.108a1.65,1.65,0,0,0-1.834,1.865V6.465a2.194,2.194,0,0,0,1.4,2.207L31.693,10.1c2.083,1.181,3.326,2.145,3.326,4.476v3.139c0,3.356-2.082,4.537-5.376,4.537H29.58c-3.294,0-5.376-1.15-5.376-4.537V15.168a1.116,1.116,0,0,1,1.243-1.244H26.5a1.117,1.117,0,0,1,1.243,1.244v2.051a1.719,1.719,0,0,0,1.866,1.927,1.719,1.719,0,0,0,1.864-1.927v-1.71a2.217,2.217,0,0,0-1.43-2.269l-2.517-1.43C25.416,10.6,24.2,9.6,24.2,7.336V4.476C24.2,1.244,26.565,0,29.549,0h.062c2.983,0,5.346,1.244,5.346,4.476v2.3A1.117,1.117,0,0,1,33.713,8.02" transform="translate(-14.694 0)" fill="#fff"></path><path id="Path_7" data-name="Path 7" d="M67.538,20.4v.746a1.116,1.116,0,0,1-1.243,1.243H59.612a1.116,1.116,0,0,1-1.243-1.243V1.877A1.116,1.116,0,0,1,59.612.634h1.119a1.116,1.116,0,0,1,1.243,1.243V19.158h4.32A1.115,1.115,0,0,1,67.538,20.4" transform="translate(-35.435 -0.385)" fill="#fff"></path><path id="Path_8" data-name="Path 8" d="M107.452,18.195a1.271,1.271,0,0,1-1.337,1.025,1.3,1.3,0,0,1-1.368-1.025l-2.921-9.107v12.06a1.117,1.117,0,0,1-1.244,1.243h-.87a1.115,1.115,0,0,1-1.243-1.243V1.878A1.115,1.115,0,0,1,99.713.635h1.119a1.315,1.315,0,0,1,1.4,1.025l3.854,11.623L109.969,1.66a1.344,1.344,0,0,1,1.4-1.025h1.243a1.115,1.115,0,0,1,1.243,1.243v19.27a1.116,1.116,0,0,1-1.243,1.243h-.994a1.116,1.116,0,0,1-1.243-1.243V9.088Z" transform="translate(-59.78 -0.386)" fill="#fff"></path><path id="Path_9" data-name="Path 9" d="M153.856,22.39h-1.15a1.228,1.228,0,0,1-1.336-1.151l-.591-3.7H146.8l-.59,3.7a1.229,1.229,0,0,1-1.337,1.151h-.963a1.014,1.014,0,0,1-1.119-1.337l3.574-19.3A1.255,1.255,0,0,1,147.733.634h2.238a1.254,1.254,0,0,1,1.367,1.119l3.637,19.3a1.014,1.014,0,0,1-1.119,1.337m-3.543-7.832L148.79,4.892l-1.523,9.666Z" transform="translate(-86.669 -0.385)" fill="#fff"></path><path id="Path_10" data-name="Path 10" d="M189.413,22.39h-1.088a1.316,1.316,0,0,1-1.4-1.026L184.5,13.718h-1.834v7.429a1.116,1.116,0,0,1-1.243,1.243h-1.119a1.116,1.116,0,0,1-1.243-1.243V1.877A1.115,1.115,0,0,1,180.307.634h4.383c3.294,0,5.47,1.305,5.47,4.6V9.119a3.992,3.992,0,0,1-2.362,4.04l2.641,7.8a.984.984,0,0,1-1.025,1.43m-6.744-11.779h1.9c1.181,0,1.989-.435,1.989-1.989V5.793c0-1.554-.808-1.989-1.989-1.989h-1.9Z" transform="translate(-108.708 -0.385)" fill="#fff"></path><path id="Path_11" data-name="Path 11" d="M225.113,22.389h-1.088a1.315,1.315,0,0,1-1.4-1.025l-2.673-8.423-1.616,3.17v5.036a1.116,1.116,0,0,1-1.243,1.243h-1.119a1.116,1.116,0,0,1-1.243-1.243V1.877A1.115,1.115,0,0,1,215.976.634H217.1a1.116,1.116,0,0,1,1.243,1.243v8.547L221.85,1.6a1.41,1.41,0,0,1,1.43-.963h1.3c.963,0,1.337.622.9,1.46l-3.419,6.713,4.071,12.152a.984.984,0,0,1-1.025,1.43" transform="translate(-130.362 -0.385)" fill="#fff"></path><path id="Path_12" data-name="Path 12" d="M257.134,22.389h-7.148a1.115,1.115,0,0,1-1.243-1.243V1.877A1.115,1.115,0,0,1,249.986.634h7.055a1.115,1.115,0,0,1,1.243,1.243v.684A1.116,1.116,0,0,1,257.041,3.8h-4.694V9.771h3.73a1.116,1.116,0,0,1,1.243,1.243V11.7a1.116,1.116,0,0,1-1.243,1.243h-3.73v6.278h4.786a1.115,1.115,0,0,1,1.243,1.243v.684a1.115,1.115,0,0,1-1.243,1.243" transform="translate(-151.009 -0.385)" fill="#fff"></path><path id="Path_13" data-name="Path 13" d="M286.511,1.877v.684A1.116,1.116,0,0,1,285.267,3.8h-2.393V21.147a1.115,1.115,0,0,1-1.243,1.243h-1.119a1.116,1.116,0,0,1-1.243-1.243V3.8h-2.393a1.116,1.116,0,0,1-1.243-1.243V1.877A1.115,1.115,0,0,1,276.876.634h8.391a1.116,1.116,0,0,1,1.244,1.243" transform="translate(-167.334 -0.385)" fill="#fff"></path><path id="Path_14" data-name="Path 14" d="M310.422,22.389H309.3a1.116,1.116,0,0,1-1.244-1.243V1.877A1.116,1.116,0,0,1,309.3.634h1.119a1.116,1.116,0,0,1,1.244,1.243v19.27a1.116,1.116,0,0,1-1.244,1.243" transform="translate(-187.02 -0.385)" fill="#fff"></path><path id="Path_15" data-name="Path 15" d="M327.512,22.389H326.7a1.116,1.116,0,0,1-1.243-1.243V1.877A1.116,1.116,0,0,1,326.7.634h1.306a1.344,1.344,0,0,1,1.4,1.025l4.227,12.432V1.877A1.115,1.115,0,0,1,334.878.634h.808a1.116,1.116,0,0,1,1.243,1.243v19.27a1.116,1.116,0,0,1-1.243,1.243h-1.119a1.345,1.345,0,0,1-1.4-1.025L328.755,8.249v12.9a1.116,1.116,0,0,1-1.243,1.243" transform="translate(-197.584 -0.385)" fill="#fff"></path><path id="Path_16" data-name="Path 16" d="M373.426,12.06v5.594c0,3.356-2.176,4.6-5.469,4.6h-.249c-3.294,0-5.47-1.211-5.47-4.6V4.6c0-3.232,2.176-4.6,5.47-4.6h.249c3.294,0,5.469,1.368,5.469,4.6V6.465a1.116,1.116,0,0,1-1.243,1.243h-1.119a1.116,1.116,0,0,1-1.244-1.243V5.159c0-1.553-.808-1.989-1.989-1.989s-1.989.436-1.989,1.989V17.094c0,1.554.808,1.989,1.989,1.989s1.989-.435,1.989-1.989V13.862h-.87a1.116,1.116,0,0,1-1.243-1.243V12.06a1.116,1.116,0,0,1,1.243-1.243h3.232a1.115,1.115,0,0,1,1.243,1.243" transform="translate(-219.911 0)" fill="#fff"></path><path id="Path_17" data-name="Path 17" d="M422.328,22h-.56a1.075,1.075,0,0,1-.963-.528l-1.057-1.523c-.808,1.46-2.113,2.3-4.413,2.3h-.217c-3.295,0-4.475-1.926-4.475-4.351V13.053a3.963,3.963,0,0,1,1.616-3.574,5.912,5.912,0,0,1-1.275-3.667V4.476c0-3.046,1.647-4.477,4.942-4.477h.062c3.295,0,4.973,1.431,4.942,4.477V6.589a.722.722,0,0,1-.808.808h-.528a.723.723,0,0,1-.808-.808V4.91c0-2.206-1.088-2.952-2.8-2.952s-2.8.746-2.8,2.952v.838c0,1.151.187,1.586,1.679,3.761l4.04,5.843,1.057-4.537a.9.9,0,0,1,.9-.684h.466a.665.665,0,0,1,.715.9l-1.523,6.65,2.3,3.357c.373.559.155.963-.5.963m-4.009-4.1-4.942-7.055a2.867,2.867,0,0,0-.528,1.772v4.475c0,2.238.808,3.264,2.642,3.264,1.554,0,2.331-.714,2.828-2.456" transform="translate(-249.297 0)" fill="#1a936f"></path><path id="Path_18" data-name="Path 18" d="M473.694,1.5l-3.356,20.14a.826.826,0,0,1-.871.746h-.652a.85.85,0,0,1-.9-.715L464.557,4.953l-3.388,16.721a.779.779,0,0,1-.87.715h-.715a.825.825,0,0,1-.87-.746L455.358,1.5a.671.671,0,0,1,.746-.87h.591a.829.829,0,0,1,.87.778l2.517,16.751,3.294-16.814a.852.852,0,0,1,.9-.714h.622a.85.85,0,0,1,.9.714l3.3,16.814,2.517-16.751a.8.8,0,0,1,.84-.778h.5a.67.67,0,0,1,.746.87" transform="translate(-276.432 -0.385)" fill="#1a936f"></path><path id="Path_19" data-name="Path 19" d="M517.089,22.389h-7.272a.722.722,0,0,1-.808-.808V1.442a.722.722,0,0,1,.808-.808H517a.722.722,0,0,1,.808.808v.4a.723.723,0,0,1-.808.808h-5.749v7.707h4.786a.723.723,0,0,1,.809.808v.373a.723.723,0,0,1-.809.808h-4.786v8.018h5.843a.722.722,0,0,1,.808.808v.4a.722.722,0,0,1-.808.808" transform="translate(-309.014 -0.385)" fill="#1a936f"></path><path id="Path_20" data-name="Path 20" d="M546.644,11.076c2.019.311,2.548,1.959,2.548,3.449V18.1c0,2.548-1.74,4.289-5.034,4.289h-4.445a.723.723,0,0,1-.808-.808V1.442a.723.723,0,0,1,.808-.808h4.507c3.294,0,4.848,1.74,4.848,4.289V7.658c0,1.461-.529,3.232-2.424,3.418m-5.5-.932h3.016c1.739,0,2.671-.684,2.671-2.207V5.42c0-1.865-.746-2.8-2.671-2.8h-3.016Zm3.14,1.989h-3.14V20.4h3.14c1.927,0,2.673-.933,2.673-2.8V14.34c0-1.523-.933-2.207-2.673-2.207" transform="translate(-327.163 -0.385)" fill="#1a936f"></path><path id="Path_21" data-name="Path 21" d="M596.726,5.234V17.79c0,3.108-1.8,4.6-5.1,4.6h-4.381a.722.722,0,0,1-.808-.808V1.442a.722.722,0,0,1,.808-.808h4.381c3.3,0,5.1,1.492,5.1,4.6m-5.221-2.579h-2.829V20.369h2.829c2.082,0,2.984-.87,2.984-3.139V5.793c0-2.268-.9-3.138-2.984-3.138" transform="translate(-356.021 -0.385)" fill="#1a936f"></path><path id="Path_22" data-name="Path 22" d="M630.192,22.389h-7.272a.722.722,0,0,1-.807-.808V1.442a.722.722,0,0,1,.807-.808H630.1a.722.722,0,0,1,.808.808v.4a.723.723,0,0,1-.808.808h-5.75v7.707h4.786a.723.723,0,0,1,.809.808v.373a.723.723,0,0,1-.809.808h-4.786v8.018h5.843a.723.723,0,0,1,.808.808v.4a.723.723,0,0,1-.808.808" transform="translate(-377.677 -0.385)" fill="#1a936f"></path><path id="Path_23" data-name="Path 23" d="M659.628,7.832h-.591a.736.736,0,0,1-.808-.808V4.973c0-2.083-.839-2.985-2.8-2.985s-2.8.9-2.8,2.985V6.5c0,1.46.5,1.9,1.958,2.7l3.108,1.708c1.678.933,2.8,2.083,2.8,3.916v2.891c0,3.17-1.71,4.537-5,4.537h-.062c-3.294,0-5-1.335-5-4.537v-2.8a.722.722,0,0,1,.808-.808h.59a.736.736,0,0,1,.808.808v2.3c0,2.051.838,3.045,2.827,3.045s2.829-.994,2.829-3.045V15.477c0-1.461-.559-2.02-2.051-2.859l-3.046-1.678c-1.9-1.057-2.765-1.957-2.765-3.854V4.476C650.429,1.43,652.418,0,655.4,0h.062c2.985,0,4.974,1.431,4.974,4.477V7.023a.723.723,0,0,1-.808.808" transform="translate(-394.868 0)" fill="#1a936f"></path><path id="Path_24" data-name="Path 24" d="M686.311,22.389h-.591a.723.723,0,0,1-.808-.808V1.442a.723.723,0,0,1,.808-.808h.591a.746.746,0,0,1,.84.808V21.581a.746.746,0,0,1-.84.808" transform="translate(-415.803 -0.385)" fill="#1a936f"></path><path id="Path_25" data-name="Path 25" d="M710.78,11.9v5.749c0,3.17-1.8,4.6-5.1,4.6h-.249c-3.294,0-5.1-1.4-5.1-4.6V4.6c0-3.046,1.8-4.6,5.1-4.6h.249c3.294,0,5.1,1.554,5.1,4.6V6.712a.723.723,0,0,1-.808.808h-.591a.746.746,0,0,1-.839-.808V5.158c0-2.268-.9-3.138-2.983-3.138s-2.984.87-2.984,3.138V17.093c0,2.27.9,3.14,2.984,3.14s2.983-.87,2.983-3.14V13.085h-2.3a.746.746,0,0,1-.807-.84V11.9a.736.736,0,0,1,.807-.808h3.73a.736.736,0,0,1,.808.808" transform="translate(-425.168 0)" fill="#1a936f"></path><path id="Path_26" data-name="Path 26" d="M737.52,22.389h-.466a.722.722,0,0,1-.808-.808V1.442a.722.722,0,0,1,.808-.808h.776a.85.85,0,0,1,.9.652l6.154,15.851V1.442a.722.722,0,0,1,.808-.808h.465a.723.723,0,0,1,.808.808V21.581a.723.723,0,0,1-.808.808h-.653a.908.908,0,0,1-.932-.652L738.328,5.576V21.581a.723.723,0,0,1-.808.808" transform="translate(-446.966 -0.385)" fill="#1a936f"></path></g></svg>