<?xml version="1.0" encoding="UTF-8"?> <svg xmlns="http://www.w3.org/2000/svg" xmlns:xlink="http://www.w3.org/1999/xlink" id="Group_2" data-name="Group 2" width="75" height="75" viewBox="0 0 75 75"><defs><clipPath id="clip-path"><rect id="Rectangle_1" data-name="Rectangle 1" width="75" height="75" fill="none"></rect></clipPath></defs><g id="Group_1" data-name="Group 1" clip-path="url(#clip-path)"><path id="Path_1" data-name="Path 1" d="M37.5,75A37.5,37.5,0,1,1,75,37.5,37.542,37.542,0,0,1,37.5,75m0-73.329A35.829,35.829,0,1,0,73.329,37.5,35.87,35.87,0,0,0,37.5,1.671" fill="#fff"></path><path id="Path_2" data-name="Path 2" d="M44.619,79.62V56.394A1.067,1.067,0,0,1,45.813,55.2h.918a1.087,1.087,0,0,1,1.193,1.193V80.537c0,4.728-2.8,6.793-7.665,6.793h-.276a1.067,1.067,0,0,1-1.193-1.193v-.643A1.087,1.087,0,0,1,39.983,84.3h.184c3.075,0,4.452-1.285,4.452-4.682" transform="translate(-24.386 -34.704)" fill="#1a936f"></path><path id="Path_3" data-name="Path 3" d="M92.673,65.779H91.8a1.087,1.087,0,0,1-1.193-1.193v-3.03c0-3.075-1.239-4.406-4.131-4.406s-4.131,1.331-4.131,4.406v2.249c0,2.157.734,2.8,2.891,3.993l4.59,2.524c2.479,1.377,4.131,3.076,4.131,5.783v4.269c0,4.682-2.525,6.7-7.39,6.7h-.092c-4.865,0-7.39-1.973-7.39-6.7V76.244A1.067,1.067,0,0,1,80.28,75.05h.872a1.087,1.087,0,0,1,1.193,1.193v3.4c0,3.029,1.239,4.5,4.177,4.5s4.177-1.469,4.177-4.5V77.07c0-2.157-.826-2.983-3.03-4.223l-4.5-2.479c-2.8-1.561-4.085-2.891-4.085-5.692V60.822c0-4.5,2.938-6.61,7.344-6.61h.092c4.406,0,7.344,2.111,7.344,6.61v3.764a1.067,1.067,0,0,1-1.193,1.193" transform="translate(-49.72 -34.082)" fill="#1a936f"></path><path id="Path_4" data-name="Path 4" d="M147.4,85.495v.642A1.067,1.067,0,0,1,146.2,87.33H136.152a1.067,1.067,0,0,1-1.193-1.193V56.394a1.067,1.067,0,0,1,1.193-1.193h.872a1.1,1.1,0,0,1,1.239,1.193V84.3H146.2a1.087,1.087,0,0,1,1.194,1.193" transform="translate(-84.846 -34.704)" fill="#1a936f"></path></g></svg> 